PathFileType	4	(X/Y/Z)	/Users/itak/Documents/Research/Walk-IL/dataset/trc/00444_00167.trc
DataRate	CameraRate	NumFrames	NumMarkers	Units	OrigDataRate	OrigDataStartFrame	OrigNumFrames
100.000000	100.000000	4	53	mm	100.000000	67	542
Frame#	Time	RPSI			LPSI			L3			STRN			T10			C7			CLAV			RBAK			LBAK			LSHO			LUPA			LAEL			LAOL			LWTS			LWPS			LFRA			LIFD			LHPS			LHTS			RSHO			RUPA			RAEL			RAOL			RWTS			RWPS			RFRA			RIFD			RHTS			RHPS			RBHD			LFHD			RFHD			LBHD			LHIP			RHIP			RASI			LASI			LKNE			LTHI			LANK			LTIP			LTOE			LMT1			LMT5			LHEE			RKNE			RTHI			RANK			RTIP			RTOE			RMT1			RMT5			RHEE			
		X1	Y1	Z1	X2	Y2	Z2	X3	Y3	Z3	X4	Y4	Z4	X5	Y5	Z5	X6	Y6	Z6	X7	Y7	Z7	X8	Y8	Z8	X9	Y9	Z9	X10	Y10	Z10	X11	Y11	Z11	X12	Y12	Z12	X13	Y13	Z13	X14	Y14	Z14	X15	Y15	Z15	X16	Y16	Z16	X17	Y17	Z17	X18	Y18	Z18	X19	Y19	Z19	X20	Y20	Z20	X21	Y21	Z21	X22	Y22	Z22	X23	Y23	Z23	X24	Y24	Z24	X25	Y25	Z25	X26	Y26	Z26	X27	Y27	Z27	X28	Y28	Z28	X29	Y29	Z29	X30	Y30	Z30	X31	Y31	Z31	X32	Y32	Z32	X33	Y33	Z33	X34	Y34	Z34	X35	Y35	Z35	X36	Y36	Z36	X37	Y37	Z37	X38	Y38	Z38	X39	Y39	Z39	X40	Y40	Z40	X41	Y41	Z41	X42	Y42	Z42	X43	Y43	Z43	X44	Y44	Z44	X45	Y45	Z45	X46	Y46	Z46	X47	Y47	Z47	X48	Y48	Z48	X49	Y49	Z49	X50	Y50	Z50	X51	Y51	Z51	X52	Y52	Z52	X53	Y53	Z53	

68	0.67	-1181.831787109375	971.3578491210938	-404.0503234863281	-1113.386108398438	968.24169921875	-527.1702270507812	-1145.469116210938	1059.498657226562	-447.4214782714844	-905.5822143554688	1255.004760742188	-343.7142028808594	-1166.188110351562	1182.937133789062	-461.2749938964844	-1114.827514648438	1451.815795898438	-423.0907287597656	-938.635009765625	1368.380737304688	-363.3796691894531	-1210.536865234375	1332.650024414062	-361.6847839355469	-1104.757690429688	1404.763671875	-526.9893798828125	-976.599365234375	1424.346435546875	-558.2986450195312	-946.3139038085938	1306.954833984375	-654.1688232421875	-906.6741333007812	1093.88330078125	-681.0399780273438	-1005.67431640625	1074.824340820312	-652.15771484375	-838.8264770507812	895.3574829101562	-607.8917846679688	-857.4091186523438	879.0947875976562	-677.8602294921875	-879.1943969726562	1007.914733886719	-681.6847534179688	-829.5127563476562	726.5797119140625	-608.4805908203125	-847.6475830078125	798.0631713867188	-673.32275390625	-817.5323486328125	806.3273315429688	-608.8988037109375	-1113.428344726562	1421.471923828125	-246.5075836181641	-1157.427612304688	1358.423706054688	-182.6572113037109	-1158.3330078125	1071.283447265625	-125.8856353759766	-1196.81298828125	1053.346435546875	-178.6953887939453	-1040.662231445312	874.5443115234375	-139.9662933349609	-1119.651000976562	855.9755249023438	-104.6738433837891	-1154.937744140625	1012.900451660156	-115.8899307250977	-1035.989501953125	715.1586303710938	-131.95703125	-1025.961059570312	775.031982421875	-123.953857421875	-1098.488891601562	770.3798217773438	-101.000602722168	-1081.736450195312	1646.694091796875	-321.6155700683594	-888.208984375	1666.074584960938	-393.9303588867188	-951.2003173828125	1667.471069335938	-279.2720031738281	-1010.092163085938	1649.257446289062	-484.8009948730469	-942.9136962890625	858.6417846679688	-566.5175170898438	-1150.621948242188	864.588623046875	-228.2876892089844	-1026.053955078125	900.90234375	-228.3047180175781	-891.9075317382812	893.0064086914062	-449.2075805664062	-987.491455078125	439.1458435058594	-542.8902587890625	-943.7615356445312	588.15283203125	-547.0234985351562	-1061.486572265625	33.33453750610352	-572.4932250976562	-996.0220947265625	289.7649230957031	-555.9971313476562	-901.9598388671875	45.14352416992188	-400.6698303222656	-980.6318359375	50.22090530395508	-412.4095458984375	-924.97998046875	45.52180862426758	-512.2427368164062	-1133.900390625	38.07448959350586	-557.5894165039062	-1134.84130859375	466.1878356933594	-254.8912811279297	-1121.405029296875	727.1687622070312	-202.7926940917969	-1177.783081054688	43.66884994506836	-283.7188415527344	-1147.61181640625	322.7145385742188	-247.9266204833984	-964.540283203125	49.53070068359375	-241.1144409179688	-1006.960510253906	55.37778854370117	-296.9996948242188	-1068.417724609375	47.46072006225586	-205.7020721435547	-1219.773559570312	35.34928512573242	-352.3677978515625	
69	0.68	-1181.848999023438	971.361328125	-404.0779418945312	-1113.378295898438	968.2523193359375	-527.2205810546875	-1145.457153320312	1059.540771484375	-447.4173583984375	-905.5614013671875	1255.021362304688	-343.6279296875	-1166.25390625	1182.973999023438	-461.1608581542969	-1114.861450195312	1451.83203125	-422.8641357421875	-938.6361694335938	1368.390747070312	-363.2305297851562	-1210.522216796875	1332.641967773438	-361.4566650390625	-1104.8193359375	1404.840209960938	-526.7411499023438	-976.7305908203125	1424.538208007812	-558.0889892578125	-946.4631958007812	1307.29248046875	-654.1334838867188	-906.885498046875	1094.201904296875	-681.3280029296875	-1005.836791992188	1075.2333984375	-652.318359375	-838.9683227539062	895.5872802734375	-608.5202026367188	-857.6815185546875	879.403076171875	-678.5037231445312	-879.3795776367188	1008.252380371094	-682.0905151367188	-829.7005615234375	726.8212280273438	-609.3517456054688	-847.8528442382812	798.364990234375	-674.0689086914062	-817.6990356445312	806.5134887695312	-609.685302734375	-1113.353271484375	1421.392578125	-246.2524566650391	-1157.328002929688	1358.341064453125	-182.4043121337891	-1158.235717773438	1071.161376953125	-125.7397079467773	-1196.751586914062	1053.29248046875	-178.5650939941406	-1040.757080078125	874.3264770507812	-139.9835052490234	-1119.748291015625	855.8165283203125	-104.6610488891602	-1154.890869140625	1012.782470703125	-115.7800445556641	-1036.266479492188	714.90771484375	-132.0962524414062	-1026.185546875	774.7825317382812	-124.03662109375	-1098.69287109375	770.1742553710938	-101.0654907226562	-1081.787841796875	1646.637084960938	-321.28515625	-888.2923583984375	1666.111694335938	-393.6702270507812	-951.2552490234375	1667.409790039062	-278.9443359375	-1010.196044921875	1649.286254882812	-484.4515075683594	-942.9364624023438	858.6549682617188	-566.5179443359375	-1150.650390625	864.5764770507812	-228.3186187744141	-1026.0947265625	900.895751953125	-228.3171234130859	-891.8564453125	893.01025390625	-449.1616821289062	-987.4674072265625	439.151123046875	-542.8613891601562	-943.7075805664062	588.15478515625	-546.9906616210938	-1061.484985351562	33.34181594848633	-572.48681640625	-996.023681640625	289.7612915039062	-555.9837646484375	-901.9583740234375	45.14562606811523	-400.6729431152344	-980.6324462890625	50.22126388549805	-412.4084777832031	-924.97509765625	45.53092956542969	-512.247802734375	-1133.908447265625	38.07677459716797	-557.5771484375	-1134.879516601562	466.18798828125	-254.9143829345703	-1121.456176757812	727.164306640625	-202.8204193115234	-1177.796508789062	43.6633186340332	-283.7121276855469	-1147.64208984375	322.7060852050781	-247.9374389648438	-964.5400390625	49.53180694580078	-241.1123199462891	-1006.970520019531	55.38086700439453	-296.9956665039062	-1068.415893554688	47.46279144287109	-205.6992645263672	-1219.781005859375	35.33266067504883	-352.3654174804688	
70	0.6900000000000001	-1181.871704101562	971.3564453125	-404.0950622558594	-1113.384887695312	968.2538452148438	-527.2520751953125	-1145.4697265625	1059.584228515625	-447.4127502441406	-905.542236328125	1255.037109375	-343.5343322753906	-1166.338012695312	1183.013793945312	-461.0238647460938	-1114.897216796875	1451.849975585938	-422.63232421875	-938.6453247070312	1368.398803710938	-363.0691833496094	-1210.519775390625	1332.642333984375	-361.2161254882812	-1104.871826171875	1404.918334960938	-526.5025634765625	-976.8864135742188	1424.724609375	-557.8715209960938	-946.5877685546875	1307.642944335938	-654.0784301757812	-907.100830078125	1094.511352539062	-681.59326171875	-1005.87451171875	1075.548828125	-652.4175415039062	-839.1006469726562	895.825439453125	-609.1306762695312	-857.94482421875	879.7074584960938	-679.1417846679688	-879.5595092773438	1008.583923339844	-682.4832763671875	-829.8906860351562	727.0676879882812	-610.2186889648438	-848.0505981445312	798.6528930664062	-674.8148803710938	-817.856201171875	806.7144775390625	-610.4616088867188	-1113.282958984375	1421.318481445312	-246.0050201416016	-1157.228271484375	1358.262939453125	-182.1574554443359	-1158.1376953125	1071.044555664062	-125.5863342285156	-1196.686401367188	1053.236450195312	-178.4270324707031	-1040.832885742188	874.1314697265625	-139.9785308837891	-1119.822387695312	855.6669921875	-104.6287841796875	-1154.850341796875	1012.668701171875	-115.6482391357422	-1036.507202148438	714.6928100585938	-132.1803588867188	-1026.3818359375	774.5656127929688	-124.078125	-1098.870361328125	769.9873657226562	-101.0907745361328	-1081.840454101562	1646.57373046875	-320.9390258789062	-888.3482055664062	1666.15576171875	-393.4093322753906	-951.3065185546875	1667.351318359375	-278.6255798339844	-1010.293823242188	1649.313842773438	-484.1003112792969	-942.9736328125	858.6686401367188	-566.5236206054688	-1150.666259765625	864.563232421875	-228.3391876220703	-1026.127807617188	900.8901977539062	-228.3266296386719	-891.808837890625	893.0160522460938	-449.1278381347656	-987.4540405273438	439.1573181152344	-542.838623046875	-943.666259765625	588.1597900390625	-546.9722900390625	-1061.483764648438	33.35170745849609	-572.4793090820312	-996.023193359375	289.7637939453125	-555.9675903320312	-901.9559936523438	45.14654159545898	-400.6766052246094	-980.6318969726562	50.22151947021484	-412.4080810546875	-924.9676513671875	45.53815078735352	-512.2559814453125	-1133.912109375	38.07994079589844	-557.5673217773438	-1134.903198242188	466.1874389648438	-254.9296417236328	-1121.489135742188	727.1553955078125	-202.8363189697266	-1177.80859375	43.65993881225586	-283.7065124511719	-1147.66357421875	322.6979675292969	-247.9445190429688	-964.5413208007812	49.53300857543945	-241.1125793457031	-1006.9794921875	55.38283157348633	-296.9930725097656	-1068.411743164062	47.46540451049805	-205.6972045898438	-1219.78564453125	35.31631469726562	-352.3617553710938	
71	0.7000000000000001	-1181.8994140625	971.3427734375	-404.1032409667969	-1113.406372070312	968.2466430664062	-527.263671875	-1145.507690429688	1059.629760742188	-447.4059753417969	-905.5216064453125	1255.052368164062	-343.4365234375	-1166.43896484375	1183.058837890625	-460.8655700683594	-1114.937866210938	1451.872192382812	-422.3868408203125	-938.66259765625	1368.40625	-362.8934631347656	-1210.531372070312	1332.650390625	-360.9634094238281	-1104.917602539062	1404.999755859375	-526.2693481445312	-977.0572509765625	1424.90576171875	-557.646728515625	-946.686767578125	1307.994995117188	-654.0054931640625	-907.3073120117188	1094.809936523438	-681.8300170898438	-1005.816345214844	1075.780883789062	-652.466796875	-839.2366333007812	896.0692138671875	-609.7169799804688	-858.1942138671875	880.0078125	-679.7680053710938	-879.7352294921875	1008.905151367188	-682.8610229492188	-830.0950317382812	727.3128662109375	-611.0840454101562	-848.245361328125	798.9307861328125	-675.5608520507812	-818.017333984375	806.9225463867188	-611.2232055664062	-1113.219970703125	1421.250122070312	-245.7649230957031	-1157.131469726562	1358.190551757812	-181.9161834716797	-1158.0390625	1070.935913085938	-125.4290542602539	-1196.618774414062	1053.179809570312	-178.2809295654297	-1040.886840820312	873.9608764648438	-139.9526519775391	-1119.873046875	855.52783203125	-104.5746917724609	-1154.816284179688	1012.561401367188	-115.4950408935547	-1036.706787109375	714.5142211914062	-132.2167816162109	-1026.540771484375	774.3804321289062	-124.0859222412109	-1099.013549804688	769.822021484375	-101.0814514160156	-1081.8974609375	1646.503173828125	-320.5790405273438	-888.384521484375	1666.201416015625	-393.1438293457031	-951.3579711914062	1667.296997070312	-278.3162841796875	-1010.382934570312	1649.341430664062	-483.7545166015625	-943.01806640625	858.6847534179688	-566.5291748046875	-1150.673095703125	864.5494384765625	-228.3522644042969	-1026.15185546875	900.8858032226562	-228.3330993652344	-891.766357421875	893.0267333984375	-449.1084899902344	-987.4494018554688	439.1654357910156	-542.8208618164062	-943.6395263671875	588.1680297851562	-546.9682006835938	-1061.481323242188	33.36526489257812	-572.4688720703125	-996.0248413085938	289.7710876464844	-555.94921875	-901.952392578125	45.14621353149414	-400.6808471679688	-980.6300048828125	50.22161102294922	-412.4085388183594	-924.95849609375	45.54299926757812	-512.2662963867188	-1133.911376953125	38.08383178710938	-557.5595703125	-1134.912353515625	466.1860046386719	-254.9373474121094	-1121.503784179688	727.143310546875	-202.8419494628906	-1177.818481445312	43.65810394287109	-283.7024841308594	-1147.676391601562	322.6904907226562	-247.9479217529297	-964.543701171875	49.53395080566406	-241.1153717041016	-1006.987182617188	55.38360595703125	-296.9930725097656	-1068.4072265625	47.46792221069336	-205.6953430175781	-1219.787841796875	35.30059814453125	-352.35546875	
